<?xml version="1.0" encoding="UTF-8"?>
<svg xmlns="http://www.w3.org/2000/svg" viewBox="0 0 700 700" role="img" aria-labelledby="title desc">
<title id="title">The Author's Crest</title>
<desc id="desc">The Author's Crest: an angular gold crown with a central vertical beam, nested energy arcs, and luminous horizon rings on an obsidian field.</desc>
<defs>
  <radialGradient id="bg" cx="50%" cy="42%" r="70%"><stop offset="0" stop-color="#0b0b0b"/><stop offset=".62" stop-color="#030303"/><stop offset="1" stop-color="#000"/></radialGradient>
  <linearGradient id="crown" x1="0" y1="0" x2="0" y2="1"><stop offset="0" stop-color="#f4d67d"/><stop offset=".16" stop-color="#c39a43"/><stop offset=".42" stop-color="#6e5424"/><stop offset=".72" stop-color="#3a2b12"/><stop offset="1" stop-color="#b88d35"/></linearGradient>
  <linearGradient id="edge" x1="0" y1="0" x2="1" y2="0"><stop stop-color="#8b6929"/><stop offset=".5" stop-color="#ffe49a"/><stop offset="1" stop-color="#8b6929"/></linearGradient>
  <linearGradient id="beam" x1="0" y1="0" x2="0" y2="1"><stop stop-color="#8b6929" stop-opacity="0"/><stop offset=".45" stop-color="#d6b15a"/><stop offset=".5" stop-color="#fff2bd"/><stop offset=".55" stop-color="#d6b15a"/><stop offset="1" stop-color="#8b6929" stop-opacity="0"/></linearGradient>
  <filter id="glow" x="-80%" y="-80%" width="260%" height="260%"><feGaussianBlur stdDeviation="5" result="blur"/><feMerge><feMergeNode in="blur"/><feMergeNode in="SourceGraphic"/></feMerge></filter>
  <filter id="soft" x="-80%" y="-80%" width="260%" height="260%"><feGaussianBlur stdDeviation="18"/></filter>
</defs>
<rect width="700" height="700" fill="url(#bg)"/>
<path d="M350 98 L350 545" stroke="url(#beam)" stroke-width="5" opacity=".8" filter="url(#glow)"/><path d="M350 98 L350 545" stroke="#e5c66c" stroke-width="1.2" opacity=".9"/>
<g fill="none" stroke-linecap="round" filter="url(#glow)">
<path d="M177 424 C157 318 216 251 274 282 C302 208 398 208 426 282 C484 251 543 318 523 424" stroke="#caa34d" stroke-width="2.2" opacity=".7"/>
<path d="M202 416 C187 337 232 286 281 309 C305 253 395 253 419 309 C468 286 513 337 498 416" stroke="#f0d77f" stroke-width="1.5" opacity=".58"/>
<path d="M232 410 C224 356 257 321 292 337 C309 298 391 298 408 337 C443 321 476 356 468 410" stroke="#d8dce0" stroke-width="1.2" opacity=".36"/>
</g>
<path d="M92 493 L111 372 L149 415 L183 317 L226 406 L280 238 L350 401 L420 238 L474 406 L517 317 L551 415 L589 372 L608 493 Z" fill="url(#crown)" stroke="url(#edge)" stroke-width="2.5"/>
<path d="M99 486 L116 387 L150 427 L184 332 L226 419 L280 254 L350 417 L420 254 L474 419 L516 332 L550 427 L584 387 L601 486 Z" fill="#3b2d15" opacity=".42"/>
<g fill="none" stroke="#f4d67d" stroke-width="2" opacity=".9"><path d="M111 372 L149 415 L183 317 L226 406 L280 238 L350 401 L420 238 L474 406 L517 317 L551 415 L589 372"/><path d="M149 415 L149 462 M183 317 L183 462 M226 406 L226 462 M280 238 L280 462 M420 238 L420 462 M474 406 L474 462 M517 317 L517 462 M551 415 L551 462"/></g>
<g fill="#f4d67d" stroke="#8b6929" stroke-width="1.5" filter="url(#glow)"><path d="M149 415 l10 10 -10 10 -10 -10z"/><path d="M226 406 l12 12 -12 12 -12 -12z"/><path d="M350 401 l18 18 -18 18 -18 -18z"/><path d="M474 406 l12 12 -12 12 -12 -12z"/><path d="M551 415 l10 10 -10 10 -10 -10z"/></g>
<path d="M121 492 L579 492 L565 548 L135 548 Z" fill="#050505" stroke="#d2aa50" stroke-width="2"/><path d="M135 548 L565 548" stroke="#f3da8c" stroke-width="3" opacity=".75" filter="url(#glow)"/>
<ellipse cx="350" cy="548" rx="295" ry="45" fill="#dcecff" opacity=".035" filter="url(#soft)"/>
<g fill="none" stroke="#dcecff" stroke-linecap="round" filter="url(#glow)"><ellipse cx="350" cy="548" rx="274" ry="34" stroke-width="2.3" opacity=".78"/><ellipse cx="350" cy="548" rx="224" ry="22" stroke-width="1.4" opacity=".65"/><ellipse cx="350" cy="548" rx="317" ry="44" stroke-width=".8" opacity=".32"/></g>
<circle cx="350" cy="548" r="6" fill="#fff8d2" filter="url(#glow)"/>
<g fill="#9d988c" text-anchor="middle" font-family="Georgia,serif" letter-spacing="4"><text x="350" y="616" font-size="10">Iᴴ · C∞ · W₀ · S</text><text x="350" y="646" font-size="10">Iᴴ · C∞ · W₀ · S</text></g>
</svg>